<svg id="Layer_1" data-name="Layer 1" xmlns="http://www.w3.org/2000/svg" viewBox="0 0 414.03 440.59"><defs><style>.cls-1{fill:#fbd58b;}.cls-2{fill:#ffeb7c;}.cls-3{fill:#fde17f;}.cls-4{fill:#9aac16;}.cls-5{fill:#fb9e3b;}.cls-6{fill:#f0c065;}.cls-7{fill:#f4f084;}.cls-8{fill:#f5ece1;}.cls-9{fill:#c37e4c;}</style></defs><path class="cls-1" d="M395.68,213.13v50.22s0,34-14.78,63.39c-1,2.07-2.15,4.09-3,6.23-2.95,7.07-9.15,24.69-9.15,52.1,0,36-1.13,75.86-1.13,75.86s-1.68,25.84-33.71,28.65-116.87,0-116.87,0-35.4,5.62-37.64-34.83c-1.13-11.8-1.69-73.61-1.69-73.61s-2.81-30.29-14.86-58.95a123.64,123.64,0,0,1-7.17-22.2c-7.55-35.57-8.25-77.59-7-88" transform="translate(-76.53 -57.25)"/><path d="M289.13,497.84c-32.11,0-66.58-1.07-71.8-1.24-3.54.4-18.33,1.4-30.19-8.17-8.95-7.22-13.92-18.38-14.77-33.16-1.1-12-1.65-68.43-1.7-73.75-.31-3-3.43-30.73-14.31-56.62a130,130,0,0,1-7.57-23.45c-7.45-35.13-8.57-78.07-7.06-90.29a7,7,0,1,1,13.89,1.72c-1.24,10.07-.41,51.36,6.87,85.66a115.47,115.47,0,0,0,6.78,20.94c12.32,29.32,15.25,59.73,15.37,61a5.83,5.83,0,0,1,0,.59c0,.61.57,61.64,1.65,73a2.64,2.64,0,0,1,0,.28c.6,10.67,3.79,18.44,9.5,23.1,8.37,6.84,20,5.22,20.1,5.2a8,8,0,0,1,1.29-.07c.85,0,84.79,2.76,116,0,24.51-2.15,27.08-19.53,27.33-22.08.09-3.1,1.12-41.31,1.12-75.45,0-27.45,6.07-46.12,9.69-54.81.77-1.85,1.64-3.54,2.48-5.17l.76-1.5c13.82-27.51,14-59.93,14-60.26V213.13a7,7,0,1,1,14,0v50.22c0,1.45-.17,36-15.52,66.53-.27.54-.54,1.08-.82,1.61-.75,1.46-1.45,2.83-2,4.17-3.22,7.72-8.61,24.41-8.61,49.42,0,35.64-1.12,75.64-1.13,76,0,.09,0,.18,0,.26-.72,11-10,32.54-40.09,35.18C323.51,497.52,306.67,497.84,289.13,497.84Z" transform="translate(-76.53 -57.25)"/><path class="cls-2" d="M347,213.13a15.68,15.68,0,0,1-2.24,6.43l-22.45,36.32A15.72,15.72,0,0,1,300.67,261l-36.33-22.45a15.73,15.73,0,0,1-5.11-21.65l3-4.88" transform="translate(-76.53 -57.25)"/><path d="M308.9,270.34A22.55,22.55,0,0,1,297,267l-36.33-22.44a22.74,22.74,0,0,1-7.39-31.29l3-4.88a7,7,0,1,1,11.91,7.36l-3,4.88a8.73,8.73,0,0,0,2.84,12L304.35,255a8.74,8.74,0,0,0,12-2.83l22.44-36.33a8.68,8.68,0,0,0,1.25-3.57A7,7,0,0,1,354,214a22.32,22.32,0,0,1-3.24,9.29l-22.44,36.32A22.75,22.75,0,0,1,308.9,270.34Z" transform="translate(-76.53 -57.25)"/><rect class="cls-3" x="175.29" y="239.41" width="74.17" height="74.17" rx="15.73" transform="translate(-186.32 85.98) rotate(-30)"/><path d="M204.59,328.4A22.84,22.84,0,0,1,184.87,317l-21.35-37A22.75,22.75,0,0,1,171.84,249l37-21.35A22.73,22.73,0,0,1,239.87,236l21.36,37A22.76,22.76,0,0,1,252.9,304l-37,21.35A22.62,22.62,0,0,1,204.59,328.4ZM197,310a8.74,8.74,0,0,0,11.93,3.2l37-21.35a8.74,8.74,0,0,0,3.2-11.93l-21.35-37a8.73,8.73,0,0,0-11.93-3.2l-37,21.35a8.75,8.75,0,0,0-3.2,11.93Z" transform="translate(-76.53 -57.25)"/><rect class="cls-3" x="205.57" y="392.99" width="74.17" height="74.17" rx="15.73" transform="translate(-259.06 121.69) rotate(-30)"/><path class="cls-3" d="M242.7,472.87a15.74,15.74,0,0,1-21.49-5.76l-21.35-37a15.72,15.72,0,0,1,5.76-21.49l37-21.35a15.72,15.72,0,0,1,21.49,5.76l21.35,37a15.73,15.73,0,0,1-5.76,21.49" transform="translate(-76.53 -57.25)"/><path d="M234.87,482a22.72,22.72,0,0,1-19.72-11.36l-21.35-37a22.73,22.73,0,0,1,8.32-31.05l37-21.36a22.76,22.76,0,0,1,31,8.33l21.35,37a22.73,22.73,0,0,1-8.32,31.05,7,7,0,0,1-7-12.12,8.74,8.74,0,0,0,3.2-11.93l-21.35-37a8.74,8.74,0,0,0-11.93-3.2l-37,21.35a8.73,8.73,0,0,0-3.2,11.93l21.35,37a8.75,8.75,0,0,0,11.93,3.2,7,7,0,1,1,7,12.12A22.6,22.6,0,0,1,234.87,482Z" transform="translate(-76.53 -57.25)"/><path class="cls-4" d="M374.36,239.68s4.75,52.63-39.23,46.29C335.13,286,323,244.72,374.36,239.68Z" transform="translate(-76.53 -57.25)"/><path d="M342.22,293.51a57.43,57.43,0,0,1-8.09-.61,7,7,0,0,1-5.71-4.95c-.24-.78-5.57-19.44,5.12-35.31,7.66-11.36,21.16-18.07,40.14-19.93a7,7,0,0,1,7.65,6.34c.11,1.2,2.47,29.64-13.75,45C361,290.35,352.45,293.51,342.22,293.51Zm-1.15-14c7.13.22,12.67-1.61,16.85-5.55,7.21-6.81,9.08-18.52,9.49-26.17-10.48,2.12-17.93,6.35-22.19,12.6C340.73,267,340.58,274.71,341.07,279.49Z" transform="translate(-76.53 -57.25)"/><path class="cls-5" d="M327.6,344.39l45.69-48.51A69.11,69.11,0,0,0,326.83,277a65.88,65.88,0,0,0-66.69,66.59,69,69,0,0,0,20,47.57Z" transform="translate(-76.53 -57.25)"/><path d="M280.16,398.18a6.93,6.93,0,0,1-5-2.08,75.44,75.44,0,0,1-22.05-52.41A72.87,72.87,0,0,1,326,270h.87a75.78,75.78,0,0,1,51.18,20.76,7,7,0,0,1,.3,9.9L332.7,349.19l-.18.18-47.44,46.79A7,7,0,0,1,280.16,398.18ZM326,284a58.87,58.87,0,0,0-58.9,59.51A61.35,61.35,0,0,0,280.49,381L322.6,339.5l40.53-43A61.56,61.56,0,0,0,326.75,284Zm1.56,60.37h0Z" transform="translate(-76.53 -57.25)"/><path class="cls-6" d="M328.35,345l31.12-34.61c-20-18.12-50.24-18-67.49.35-16.93,18-15.71,47.44,2.76,66.45Z" transform="translate(-76.53 -57.25)"/><path d="M294.74,384.2a7,7,0,0,1-5-2.12c-21.21-21.85-22.45-55.29-2.83-76.13,19.82-21,54.49-21.37,77.29-.74a7,7,0,0,1,.51,9.87l-31.12,34.61-.36.37-33.62,32.2A7,7,0,0,1,294.74,384.2Zm30.2-80.29a37.87,37.87,0,0,0-27.86,11.64C284.33,329.08,284,350.92,295.3,367l28-26.83,25.93-28.83A44.37,44.37,0,0,0,324.94,303.91Zm3.41,41.1h0Z" transform="translate(-76.53 -57.25)"/><line class="cls-5" x1="254.65" y1="284.61" x2="253.89" y2="240.07"/><path d="M331.18,348.86a7,7,0,0,1-7-6.88l-.76-44.54a7,7,0,1,1,14-.24l.77,44.54a7,7,0,0,1-6.88,7.12Z" transform="translate(-76.53 -57.25)"/><line class="cls-5" x1="216.69" y1="252.36" x2="251.42" y2="286.7"/><path d="M328,350.94a7,7,0,0,1-4.92-2L288.3,314.59a7,7,0,0,1,9.84-10L332.88,339a7,7,0,0,1-4.92,12Z" transform="translate(-76.53 -57.25)"/><line class="cls-5" x1="249.23" y1="290.3" x2="203.57" y2="287.76"/><path d="M325.77,354.55h-.39L279.71,352a7,7,0,0,1,.78-14l45.67,2.54a7,7,0,0,1-.39,14Z" transform="translate(-76.53 -57.25)"/><ellipse class="cls-7" cx="151.28" cy="132.75" rx="67.52" ry="68.19" transform="translate(-125.61 94.61) rotate(-46.72)"/><path class="cls-7" d="M83.53,136.26A68.33,68.33,0,0,0,105,181.9c27.42,25.83,70.37,24.75,95.94-2.39S225,109.42,197.57,83.6,127.21,58.85,101.64,86a66.16,66.16,0,0,0-8,10.28" transform="translate(-76.53 -57.25)"/><path d="M151.94,207.55a75.61,75.61,0,0,1-75.39-70.86,7,7,0,1,1,14-.86,61.31,61.31,0,0,0,19.27,41c24.56,23.13,63.16,22.19,86-2.1s21.51-62.88-3.05-86-63.17-22.19-86,2.11A59.81,59.81,0,0,0,99.6,100a7,7,0,0,1-11.85-7.46A74.06,74.06,0,0,1,96.54,81.2c28.18-29.92,75.65-31.12,105.83-2.7s31.82,75.89,3.65,105.8A74,74,0,0,1,151.94,207.55Z" transform="translate(-76.53 -57.25)"/><ellipse class="cls-6" cx="151.79" cy="133.63" rx="43.02" ry="44.98" transform="translate(-126.09 95.26) rotate(-46.72)"/><path d="M153.74,184.58a53.44,53.44,0,0,1-52.95-50.25,48.7,48.7,0,0,1,48.64-51.65h.4a52.71,52.71,0,0,1,36.25,14.54c20.87,19.65,22.46,52,3.55,72.05a48.74,48.74,0,0,1-35.49,15.31Zm-3.91-87.9h-.29a34.83,34.83,0,0,0-25.4,10.91h0a34.83,34.83,0,0,0-9.37,26,39.44,39.44,0,0,0,39.26,37,34.87,34.87,0,0,0,25.41-10.91c13.61-14.46,12.29-37.9-3-52.26A38.77,38.77,0,0,0,149.83,96.68ZM119,102.79h0Z" transform="translate(-76.53 -57.25)"/><line class="cls-5" x1="72.75" y1="117.91" x2="74.3" y2="32.64"/><path d="M149.28,182.16h-.13a7,7,0,0,1-6.87-7.13l1.55-85.27a7,7,0,0,1,7-6.87H151A7,7,0,0,1,157.83,90l-1.55,85.27A7,7,0,0,1,149.28,182.16Z" transform="translate(-76.53 -57.25)"/><line class="cls-5" x1="47.29" y1="105.75" x2="103.26" y2="44.47"/><path d="M123.82,170a7,7,0,0,1-5.16-11.73l56-61.27A7,7,0,1,1,185,106.44l-56,61.28A7,7,0,0,1,123.82,170Z" transform="translate(-76.53 -57.25)"/><line class="cls-5" x1="43.89" y1="45.73" x2="105.37" y2="105.61"/><path d="M181.9,169.86a7,7,0,0,1-4.88-2L115.54,108a7,7,0,1,1,9.77-10l61.48,59.88a7,7,0,0,1-4.89,12Z" transform="translate(-76.53 -57.25)"/><line class="cls-5" x1="116.16" y1="73.99" x2="32.35" y2="74.24"/><path d="M108.88,138.49a7,7,0,0,1,0-14l83.82-.25h0a7,7,0,0,1,0,14l-83.82.25Z" transform="translate(-76.53 -57.25)"/><path class="cls-4" d="M186.66,355.86s37.08-37.65,60.68,0C247.34,355.86,223.74,391.82,186.66,355.86Z" transform="translate(-76.53 -57.25)"/><path d="M218.81,378.84c-12.28,0-24.72-6-37-18a7,7,0,0,1-.12-9.93c.85-.87,21-21,43.25-18.62,11.35,1.24,20.89,7.91,28.35,19.81a7,7,0,0,1-.08,7.56c-.45.68-11.24,16.82-30.25,18.92A38,38,0,0,1,218.81,378.84ZM197.35,356c8.39,6.61,16.41,9.55,23.94,8.76,7.92-.83,13.93-5.73,17.26-9.2-4.44-5.59-9.43-8.64-15.16-9.26C213.62,345.18,203.46,351.32,197.35,356Z" transform="translate(-76.53 -57.25)"/><path d="M395.67,220.13a7,7,0,0,1-7-7V139a.86.86,0,0,0-.86-.87H155.66c-.11,43.08-.11,71.2,0,73.41a7,7,0,0,0-7-6.5v7l-5,4.94c-2.05-2.05-2.07-3.92-2.1-7.31,0-1.55,0-3.78,0-6.51,0-5.43,0-12.85,0-20.88,0-16,0-34.51.08-44.28a13.93,13.93,0,0,1,13.92-13.87H387.81A14.88,14.88,0,0,1,402.67,139v74.15A7,7,0,0,1,395.67,220.13Z" transform="translate(-76.53 -57.25)"/><path class="cls-8" d="M262.24,212l19.43-31.45a15.74,15.74,0,0,1,21.66-5.11l36.32,22.44A15.75,15.75,0,0,1,347,213.13" transform="translate(-76.53 -57.25)"/><path d="M347,220.13a5.64,5.64,0,0,1-.82,0,7,7,0,0,1-6.14-7.76,8.79,8.79,0,0,0-4.09-8.46l-36.32-22.45a8.75,8.75,0,0,0-12,2.84L268.2,215.7a7,7,0,0,1-11.91-7.36l19.43-31.45A22.77,22.77,0,0,1,307,169.5L343.33,192A22.8,22.8,0,0,1,354,214,7,7,0,0,1,347,220.13Z" transform="translate(-76.53 -57.25)"/><path d="M395.67,219h-203a7,7,0,0,1,0-14h203a7,7,0,0,1,0,14Z" transform="translate(-76.53 -57.25)"/><path class="cls-9" d="M337.8,208.93,358.87,84.47s3.65-24.16,39.33-19.66c29.57,3.72,69,7.84,81.61,9.13a4.19,4.19,0,0,1,3.74,4.52L482.34,93a4.94,4.94,0,0,1-5.42,4.51l-73.87-7.33c-1.72-.17-3.43-.46-5.12-.8-4.59-.91-15.69-1.74-16.58,11.16,0,.28-18,111.53-18,111.53H337.8Z" transform="translate(-76.53 -57.25)"/><path d="M363.37,219H337.8a7,7,0,0,1-7-7v-3.09a7.7,7.7,0,0,1,.1-1.17L352,83.31h0c.4-2.12,6.49-30.56,47.11-25.45,29.69,3.74,69.85,7.93,81.45,9.12a11.24,11.24,0,0,1,10,12l-1.21,14.5a11.93,11.93,0,0,1-13.08,10.9l-73.87-7.34c-1.73-.17-3.57-.45-5.79-.89-2.9-.58-5.54-.36-6.72.54s-1.42,2.75-1.52,4.23h0c-.24,2.06-2.21,14.3-18,112.17A7,7,0,0,1,363.37,219Zm-17.81-14h11.85c6.13-38,16.31-101,17-105.3.61-7.71,4.11-11.92,6.95-14.1,6.06-4.64,13.84-4,17.94-3.16,1.77.35,3.19.57,4.47.7l71.79,7.13.8-9.67c-14.3-1.48-51.2-5.36-79-8.87-12.33-1.55-21.73.56-27.17,6.11a16.68,16.68,0,0,0-4.37,7.66.5.5,0,0,1,0,.12Z" transform="translate(-76.53 -57.25)"/></svg>