<svg xmlns="http://www.w3.org/2000/svg" viewBox="0 0 84.8 80.63"><defs><style>.cls-1{fill:#b9b9b9;}.cls-1,.cls-10,.cls-11,.cls-2,.cls-5,.cls-6,.cls-7,.cls-9{stroke:#000;stroke-width:2.35px;}.cls-1,.cls-10,.cls-11,.cls-2,.cls-5,.cls-6,.cls-9{stroke-linecap:round;}.cls-1,.cls-10,.cls-11,.cls-2,.cls-6,.cls-9{stroke-linejoin:round;}.cls-2{fill:#cdcdcd;}.cls-10,.cls-3{fill:#744630;}.cls-4{fill:#85bc94;}.cls-5,.cls-6{fill:none;}.cls-5,.cls-7{stroke-miterlimit:10;}.cls-7{fill:#8f563b;}.cls-8,.cls-9{fill:#ebebeb;}.cls-11{fill:#b3e4e8;}</style></defs><g id="Layer_2" data-name="Layer 2"><g id="Layer_1-2" data-name="Layer 1"><rect class="cls-1" x="52.23" y="1.17" width="24.83" height="9.56" rx="3.69"/><path class="cls-2" d="M73,19.79H56.38c2-1.39,1.82-5.2,1.79-9h13C71.13,14.41,71.21,17.7,73,19.79Z"/><path class="cls-3" d="M57.65,19.79h14.8A11.17,11.17,0,0,1,83.62,31V70.39a9.06,9.06,0,0,1-9.06,9.06H54.72a9.06,9.06,0,0,1-9.06-9.06V31.78A12,12,0,0,1,57.65,19.79Z"/><rect class="cls-4" x="45.66" y="33.89" width="37.96" height="28.31"/><line class="cls-5" x1="45.66" y1="33.89" x2="83.62" y2="33.89"/><line class="cls-5" x1="52.23" y1="62.26" x2="83.62" y2="62.26"/><path class="cls-6" d="M83.62,51V70.39a9.05,9.05,0,0,1-9.06,9.06H54.72a9.06,9.06,0,0,1-9.06-9.06V31.78a12,12,0,0,1,12-12h14.8A11.18,11.18,0,0,1,83.62,31V43.43"/><rect class="cls-7" x="58.44" y="38.29" width="12.85" height="19.53" rx="6.42" transform="translate(69 -32.56) rotate(56.41)"/><line class="cls-5" x1="56.73" y1="53.46" x2="72.4" y2="42.95"/><path class="cls-8" d="M37.73,64.55V37.77H1.17V64.83a11.86,11.86,0,0,0,1.61,6l4.49,7.71a1.91,1.91,0,0,0,1.67,1h20.4A1.93,1.93,0,0,0,31,78.56l4.89-7.62A11.86,11.86,0,0,0,37.73,64.55Z"/><path class="cls-9" d="M37.73,64.55V37.77H1.17V64.83a11.86,11.86,0,0,0,1.61,6l4.49,7.71a1.91,1.91,0,0,0,1.67,1h20.4A1.93,1.93,0,0,0,31,78.56l4.89-7.62A11.86,11.86,0,0,0,37.73,64.55Z"/><path class="cls-10" d="M33.37,57.45h4.36v7.1a11.86,11.86,0,0,1-1.87,6.39L31,78.56a1.93,1.93,0,0,1-1.63.89H8.94a1.91,1.91,0,0,1-1.67-1L2.78,70.78a11.86,11.86,0,0,1-1.61-6V57.45H28.1"/><path class="cls-11" d="M25.87,56.06l-.78,1.34H9.36l4.71-8.15a1.71,1.71,0,0,1,2.34-.63l8.83,5.09A1.73,1.73,0,0,1,25.87,56.06Z"/><path class="cls-10" d="M25.09,57.4l-4.32,7.48a1.7,1.7,0,0,1-2.34.63L9.6,60.42A1.73,1.73,0,0,1,9,58.07l.39-.67Z"/></g></g></svg>