<svg xmlns="http://www.w3.org/2000/svg" viewBox="0 0 41.09 84.8"><defs><style>.cls-1,.cls-3{fill:#92563a;}.cls-2,.cls-9{fill:none;}.cls-2,.cls-3,.cls-5,.cls-6,.cls-7,.cls-8,.cls-9{stroke:#000;stroke-width:2.55px;}.cls-2,.cls-3,.cls-5,.cls-7{stroke-linecap:round;}.cls-2,.cls-3,.cls-5,.cls-8,.cls-9{stroke-linejoin:round;}.cls-4,.cls-5{fill:#f2dec2;}.cls-6,.cls-7{fill:#f35244;stroke-miterlimit:10;}.cls-8{fill:#e0e0de;}</style></defs><g id="Layer_2" data-name="Layer 2"><g id="Layer_1-2" data-name="Layer 1"><path class="cls-1" d="M23.8,75H12.43A41.06,41.06,0,0,1,6.7,55.24a18,18,0,0,0-1.41-7.58C2.18,41.47.81,35.36,1.42,29.38h33.4c.47,6.91-1.14,12.07-3.56,17.87a21.15,21.15,0,0,0-1.56,7A37.54,37.54,0,0,1,23.8,75Z"/><path class="cls-2" d="M26.66,69.64A35.64,35.64,0,0,1,23.8,75H12.43A41.06,41.06,0,0,1,6.7,55.24a18,18,0,0,0-1.41-7.58C2.18,41.47.81,35.36,1.42,29.38h33.4c.47,6.91-1.14,12.07-3.56,17.87a21.15,21.15,0,0,0-1.56,7,41.84,41.84,0,0,1-1.38,10.57"/><path class="cls-3" d="M14.19,74.85h7.74a8.67,8.67,0,0,1,8.67,8.67v0a0,0,0,0,1,0,0H5.52a0,0,0,0,1,0,0v0A8.67,8.67,0,0,1,14.19,74.85Z"/><path class="cls-2" d="M18.19,36.41h0a5.17,5.17,0,0,1,5.17,5.17V75a0,0,0,0,1,0,0H13a0,0,0,0,1,0,0V41.58A5.17,5.17,0,0,1,18.19,36.41Z"/><path class="cls-2" d="M23.35,40.75s1.4-4.68,6.31-4.57A4.51,4.51,0,0,1,33.1,38"/><path class="cls-2" d="M5.75,36.54a6.89,6.89,0,0,1,6.72,3.75"/><path class="cls-4" d="M33.1,29.27v.11H3.21v-.11A7.28,7.28,0,0,1,10.49,22H8.68V20.71a5.12,5.12,0,0,1,5.12-5.12h8.75a5.1,5.1,0,0,1,5.12,5.12V22H25.82a7.29,7.29,0,0,1,7.28,7.28Z"/><path class="cls-5" d="M5.35,24.13A7.22,7.22,0,0,1,10.49,22H8.68V20.71a5.12,5.12,0,0,1,5.12-5.12h8.75a5.1,5.1,0,0,1,5.12,5.12V22H25.82a7.29,7.29,0,0,1,7.28,7.28v.11H3.21"/><circle class="cls-6" cx="18.12" cy="11.43" r="4.04"/><path class="cls-7" d="M14.08,2.7s4,1.56,4,4.68"/><path class="cls-8" d="M39.81,3.62l-9.47,20A7.22,7.22,0,0,0,25.82,22h1.85V20.71A5.1,5.1,0,0,0,26.92,18L34.87,1.28Z"/><line class="cls-2" x1="15.4" y1="21.97" x2="25.82" y2="21.97"/><line class="cls-9" x1="38.38" y1="6.64" x2="31.97" y2="7.38"/><line class="cls-9" x1="34.9" y1="13.63" x2="28.59" y2="14.52"/></g></g></svg>