<svg xmlns="http://www.w3.org/2000/svg" viewBox="0 0 55.1 84.19"><defs><style>.cls-1{fill:#7a005f;}.cls-2{fill:#f15f46;}.cls-3{fill:#d01658;stroke:#000;stroke-miterlimit:10;stroke-width:2.5px;}.cls-4{fill:#8ec13f;}.cls-5{fill:none;}</style></defs><g id="Layer_2" data-name="Layer 2"><g id="Layer_1-2" data-name="Layer 1"><path class="cls-1" d="M49.68,30.17c-2.14.43-6.91.93-10.38-2-4.59-3.83-11.32-2.47-14.13-1.7s-6.38,3.66-11.83,2c-2.53-.8-5.77-1.9-7.43-2.47l.8-7H48.39Z"/><path class="cls-2" d="M53.85,56.64l-2.3-20a12,12,0,0,1-5,1c-7.07,0-7.55-4.38-14.62-4.38s-7.55,4.38-14.61,4.38-6.09-4.38-13.15-4.38H4L1.25,56.64a26.3,26.3,0,0,0,52.6,0Z"/><path class="cls-3" d="M51.55,36.66,50.34,37c-.9.25-1.56.47-2.31.6h0a12.11,12.11,0,0,1-3.41,0c-3.52-.36-6.25-3.36-11.22-4.27L33,33.26c-5.12-.82-9.58,2.93-11.41,3.69l-.08,0A10.25,10.25,0,0,1,11,35.7a13.19,13.19,0,0,0-5.79-2.3C4.43,33.29,4,33.27,4,33.27l.88-6.7,1.08.37c1.66.57,4.9,1.67,7.43,2.47,5.45,1.7,9-1.2,11.83-2s9.54-2.13,14.13,1.7c3.47,2.89,8.24,2.39,10.38,2a11.08,11.08,0,0,0,1.11-.26Z"/><path class="cls-4" d="M37.78,18.75H34.86V12.9A11.69,11.69,0,0,1,46.55,1.21h2.92V7.06A11.7,11.7,0,0,1,37.78,18.75Z"/><path class="cls-5" d="M50.22,35.82l-.54-4.7.53,4.71Z"/><path class="cls-5" d="M44.38,9.4l-7,8.14H38A10.55,10.55,0,0,0,48.26,7.06V2.42H46.55A10.5,10.5,0,0,0,36.07,12.9v2.47l6.47-7.55Z"/><polygon class="cls-5" points="5.32 32.05 5.32 32.06 5.52 30.33 5.32 32.05"/><polygon points="5.52 30.33 5.52 30.33 5.52 30.33 5.52 30.33"/><polygon points="49.68 31.12 49.68 31.12 49.68 31.12 49.68 31.12"/><path d="M19.92,20H48.39l1.29,11.15h0l.54,4.7h0L50.34,37v.12l.28,2.53.44,3.79a1.24,1.24,0,0,0,2.46-.29L50.67,18.61a1.24,1.24,0,0,0-1.2-1.08H45.31l.56-.44a12.83,12.83,0,0,0,4.81-10V1.21A1.21,1.21,0,0,0,49.47,0H46.55a12.93,12.93,0,0,0-12.9,12.9v4.63H19.92a1.21,1.21,0,0,0-1.21,1.22h0A1.21,1.21,0,0,0,19.92,20ZM36.07,12.9A10.5,10.5,0,0,1,46.55,2.42h1.71V7.06A10.55,10.55,0,0,1,38,17.53H37.4l7-8.14L42.54,7.82l-6.47,7.55Z"/><path d="M54.65,52.76a1.24,1.24,0,1,0-2.47.29l.42,3.66a25.05,25.05,0,0,1-50.1,0L4.7,37.6l.47-4.2v-.1l.14-1.24h0l.2-1.72.39-3.39.8-7h3.38a1.21,1.21,0,0,0,1.21-1.21h0a1.21,1.21,0,0,0-1.21-1.22H5.63a1.22,1.22,0,0,0-1.2,1.08L0,56.49v.15a27.55,27.55,0,0,0,55.1,0Z"/><path d="M15.83,56.82a5,5,0,1,0-5-5A5,5,0,0,0,15.83,56.82Zm0-7.73a2.74,2.74,0,1,1-2.73,2.74A2.74,2.74,0,0,1,15.83,49.09Z"/><path d="M44.85,75.13a1.25,1.25,0,0,0,1-.5l.8-1.06V75a10.23,10.23,0,0,1,2.26-1.8V51.83a9.64,9.64,0,0,0-9.62-9.63H15.83a9.64,9.64,0,0,0-9.61,9.27h0V73.34a10.12,10.12,0,0,1,2.26,1.57V73.57l.8,1.06a1.25,1.25,0,0,0,1,.5h0a1.26,1.26,0,0,0,1-.48,20.93,20.93,0,0,1,2.31-2.48l2.22,2.48a1.27,1.27,0,0,0,1.67.21l1.72-1.16v8.38a13.4,13.4,0,0,1,2.27.29,6.12,6.12,0,0,1,12.21-.17,13.41,13.41,0,0,1,2.28-.36V73.7l1.72,1.16a1.27,1.27,0,0,0,1.67-.21l2.22-2.48a20.93,20.93,0,0,1,2.31,2.48A1.24,1.24,0,0,0,44.85,75.13ZM39.27,44.46a7.37,7.37,0,1,1-7.37,7.37A7.37,7.37,0,0,1,39.27,44.46Zm-6.18,0a9.58,9.58,0,0,0-3.44,7.37V62.5a2.11,2.11,0,0,1-1.5,2H27a2.11,2.11,0,0,1-1.5-2V51.83A9.58,9.58,0,0,0,22,44.46Zm-17.26,0a7.37,7.37,0,1,1-7.36,7.37A7.38,7.38,0,0,1,15.83,44.46ZM10.31,72.27,8.47,69.84V58A9.6,9.6,0,0,0,23.2,58V62.5a4.34,4.34,0,0,0,.65,2.29A22.83,22.83,0,0,0,10.31,72.27Zm27.9.24L35.67,70.8a1.26,1.26,0,0,0-1.32-.07,1.27,1.27,0,0,0-.67,1.12v5.08a8.37,8.37,0,0,0-12.26,0V71.85a1.27,1.27,0,0,0-.67-1.12,1.26,1.26,0,0,0-1.32.07l-2.54,1.71-1.58-1.77a20.61,20.61,0,0,1,11.42-4,4.24,4.24,0,0,0,1.64,0,20.61,20.61,0,0,1,11.42,4Zm-7-7.72a4.34,4.34,0,0,0,.65-2.29V58a9.6,9.6,0,0,0,14.73,0V69.84l-1.84,2.43A22.83,22.83,0,0,0,31.25,64.79Z"/><path d="M39.27,56.82a5,5,0,1,0-5-5A5,5,0,0,0,39.27,56.82Zm0-7.73a2.74,2.74,0,1,1-2.74,2.74A2.74,2.74,0,0,1,39.27,49.09Z"/></g></g></svg>