<svg xmlns="http://www.w3.org/2000/svg" viewBox="0 0 84.22 84.28"><defs><style>.cls-1{fill:#ffefd2;}.cls-2{fill:#01998d;}.cls-3{fill:none;}.cls-3,.cls-4,.cls-5,.cls-6{stroke:#000;stroke-linecap:round;stroke-linejoin:round;stroke-width:2.44px;}.cls-4{fill:#533222;}.cls-5{fill:#eaeae8;}.cls-6{fill:#604026;}</style></defs><g id="Layer_2" data-name="Layer 2"><g id="Layer_1-2" data-name="Layer 1"><path class="cls-1" d="M72.94,74.06H52a2.58,2.58,0,0,1-2.56-2.28L45.12,33.94H79.18L75.51,71.73A2.58,2.58,0,0,1,72.94,74.06Z"/><polygon class="cls-2" points="45.97 41.34 78.46 41.34 76.14 65.22 48.67 65.22 45.97 41.34"/><path class="cls-3" d="M46.78,48.4,45.12,33.94H79.18L75.51,71.73a2.58,2.58,0,0,1-2.57,2.33H52a2.58,2.58,0,0,1-2.56-2.28"/><line class="cls-3" x1="45.97" y1="41.34" x2="70.5" y2="41.34"/><line class="cls-3" x1="75.8" y1="65.22" x2="59.33" y2="65.22"/><path class="cls-4" d="M81.2,33.94H43.41l.8-7.55a1.33,1.33,0,0,1,1.33-1.2H79.17a1.35,1.35,0,0,1,1.34,1.22Z"/><path class="cls-4" d="M75.24,20.18a1.21,1.21,0,0,1,1.2,1.06l.47,4H47.53L48,21.25a1.21,1.21,0,0,1,1.2-1.07H69.26"/><path class="cls-5" d="M51.43,52H48.6V50.49a1.35,1.35,0,0,0-1.35-1.36H4.71a1.35,1.35,0,0,0-1.35,1.36v6.39A17.55,17.55,0,0,0,20.91,74.43H31.05a17.51,17.51,0,0,0,12.81-5.55h7.72A8.47,8.47,0,0,0,60,60.49,8.59,8.59,0,0,0,51.43,52Zm1.89,10.63a3,3,0,0,1-2.11.87H47.32a17.57,17.57,0,0,0,1.27-5.94h2.62a3,3,0,0,1,2.11,5.07Z"/><line class="cls-3" x1="7.48" y1="55.81" x2="18.79" y2="55.81"/><line class="cls-3" x1="23.78" y1="55.81" x2="26.77" y2="55.81"/><path class="cls-6" d="M12,83.06H9.48A8.26,8.26,0,0,1,1.22,74.8H83a8.25,8.25,0,0,1-8.25,8.26H22.11"/><path class="cls-3" d="M23.78,2.08V6s0,4.77,7.16,5.19,5.89,10.37,0,10.51"/><path class="cls-3" d="M24.77,21.7H10.21a6.43,6.43,0,0,0-4.27,1.58,5.38,5.38,0,0,0-1.84,4.1C4,32,5.85,34,9.56,34.39"/><path class="cls-3" d="M14,34.39s11-2,12.47,9.6"/><path class="cls-3" d="M31.69,36.77s3.39,3.16,3.18,11.29"/><line class="cls-3" x1="17.83" y1="40.63" x2="17.83" y2="43.99"/><path class="cls-3" d="M46.85,1.22s-.07,3.72,2.24,4.49c1.81.6,6.61.6,8.63.58a5.42,5.42,0,0,1,3.06.84,3.77,3.77,0,0,1,1.52,1.8"/><path class="cls-3" d="M62.15,13.08a5.53,5.53,0,0,1-4.51,2.8c-3.15.14-5,3.78-5,3.78"/></g></g></svg>