<svg id="Layer_1" data-name="Layer 1" xmlns="http://www.w3.org/2000/svg" viewBox="0 0 240.93 439.93"><defs><style>.cls-1{fill:#e4e4e2;}.cls-2{fill:#e06661;}</style></defs><rect class="cls-1" x="24.64" y="55.57" width="192.21" height="32.79" rx="9.64"/><path d="M369.43,159.07H196.5a16.65,16.65,0,0,1-16.64-16.64v-13.5a16.65,16.65,0,0,1,16.64-16.64H369.43a16.65,16.65,0,0,1,16.64,16.64v13.5A16.65,16.65,0,0,1,369.43,159.07ZM196.5,126.29a2.64,2.64,0,0,0-2.64,2.64v13.5a2.64,2.64,0,0,0,2.64,2.64H369.43a2.64,2.64,0,0,0,2.64-2.64v-13.5a2.64,2.64,0,0,0-2.64-2.64Z" transform="translate(-162.21 -63.71)"/><rect class="cls-2" x="7" y="89" width="226.93" height="309.86" rx="19.93"/><path d="M376.21,469.57H189.14a27,27,0,0,1-26.93-26.93V223.43a7,7,0,0,1,14,0V442.64a12.94,12.94,0,0,0,12.93,12.93H376.21a12.94,12.94,0,0,0,12.93-12.93v-270a12.94,12.94,0,0,0-12.93-12.93H189.14a12.94,12.94,0,0,0-12.93,12.93v9.65a7,7,0,0,1-14,0v-9.65a27,27,0,0,1,26.93-26.93H376.21a27,27,0,0,1,26.93,26.93v270A27,27,0,0,1,376.21,469.57Z" transform="translate(-162.21 -63.71)"/><path class="cls-1" d="M353.48,423c-1.1,12-2.8,25.1-5.27,39.55H286.5s46.61-62,26-123.11S284,264.89,282.68,222.79s0-70.72,0-70.72h60.07s-22.18,53-14.79,105.75c1.93,19.31,7.87,40.18,11.61,51.94a108.76,108.76,0,0,0,4.95,12.82c3.27,7,10,25.65,10.58,60.92" transform="translate(-162.21 -63.71)"/><path d="M348.22,469.57H286.5a7,7,0,0,1-5.6-11.2c.44-.59,44.12-59.9,25-116.67-4-11.86-7.5-21.9-10.6-30.76C282.58,274.58,276.78,258,275.68,223c-1.31-41.9,0-71,0-71.26a7,7,0,0,1,7-6.68h60.07a7,7,0,0,1,6.46,9.7c-.21.51-21.34,52-14.31,102.08l0,.28c1.9,19,7.9,39.78,11.31,50.51a101.58,101.58,0,0,0,4.63,12c3.93,8.45,10.6,28,11.23,63.74a7,7,0,0,1-6.88,7.12h-.12a7,7,0,0,1-7-6.88c-.6-34.42-7.14-52.09-9.93-58.09a117.05,117.05,0,0,1-5.27-13.65c-3.57-11.22-9.85-33-11.89-53.22-5.71-41,5.55-81.53,11.69-99.59H289.44c-.3,10.79-.69,33.87.24,63.5,1,32.83,6.24,47.73,18.83,83.75,3.11,8.9,6.64,19,10.66,30.91,16.42,48.75-6.87,97.06-19.68,118.34h42.79c1.84-11.49,3.26-22.63,4.23-33.19a7,7,0,0,1,13.95,1.28c-1.17,12.6-2.95,26-5.3,39.79A7,7,0,0,1,348.22,469.57Z" transform="translate(-162.21 -63.71)"/><polygon class="cls-1" points="204.21 432.93 38.78 432.93 32.36 399.29 208.64 399.29 204.21 432.93"/><path d="M366.43,503.64H201a7,7,0,0,1-6.88-5.68l-6.42-33.65a7,7,0,0,1,6.87-8.31H370.86a7,7,0,0,1,6.94,7.91l-4.43,33.65A7,7,0,0,1,366.43,503.64Zm-159.64-14h153.5L362.87,470H203Z" transform="translate(-162.21 -63.71)"/><path class="cls-1" d="M184.71,7h0a16.5,16.5,0,0,1,16.5,16.5V54.57a0,0,0,0,1,0,0h-33a0,0,0,0,1,0,0V23.5A16.5,16.5,0,0,1,184.71,7Z"/><path d="M363.43,125.29h-33a7,7,0,0,1-7-7V87.21a23.5,23.5,0,1,1,47,0v31.08A7,7,0,0,1,363.43,125.29Zm-26-14h19V87.21a9.5,9.5,0,1,0-19,0Z" transform="translate(-162.21 -63.71)"/></svg>