<svg xmlns="http://www.w3.org/2000/svg" viewBox="0 0 40.71 84.67"><defs><style>.cls-1{fill:#3c2415;stroke-width:2.57px;}.cls-1,.cls-11,.cls-6,.cls-7{stroke:#000;stroke-miterlimit:10;}.cls-2{fill:#f6c583;}.cls-3,.cls-6{fill:#993e29;}.cls-4{fill:#fbb040;}.cls-5{fill:#55d8d8;}.cls-6,.cls-7{stroke-width:2.46px;}.cls-7{fill:#ef89ca;stroke-linecap:round;}.cls-8{fill:#006838;}.cls-9{fill:#39b54a;}.cls-10{fill:#ed1c24;}.cls-11{stroke-width:0.99px;}</style></defs><g id="Layer_2" data-name="Layer 2"><g id="Layer_1-2" data-name="Layer 1"><rect class="cls-1" x="29.17" y="17.71" width="4.3" height="24.23" rx="0.8" transform="translate(21.34 -12.25) rotate(33.05)"/><path class="cls-2" d="M30.57,27.35a1.27,1.27,0,0,0,.84-.3A15.3,15.3,0,0,1,1,24.68c0-.37,0-.74,0-1.11a1.24,1.24,0,0,1,1.26-.09A1.23,1.23,0,0,1,3,24.56v2a1.2,1.2,0,0,0,2.4,0V21.28a1.33,1.33,0,0,1,.39-.94,1.32,1.32,0,0,1,1.89,0,1.33,1.33,0,0,1,.39.94v2.47a1.34,1.34,0,0,0,2.3.93h0A6,6,0,0,0,22.13,26h0a1.31,1.31,0,0,1,1.27.13A1.36,1.36,0,0,1,24,27.25V32a1.34,1.34,0,0,0,2.67,0V23a1.27,1.27,0,1,1,2.54,0v3a1.33,1.33,0,0,0,1.34,1.34Z"/><path class="cls-3" d="M31.6,24.68a14.39,14.39,0,0,1-.19,2.37,1.34,1.34,0,0,1-2.18-1V23a1.27,1.27,0,1,0-2.54,0V32A1.34,1.34,0,0,1,24,32V27.25a1.36,1.36,0,0,0-.61-1.13A1.31,1.31,0,0,0,22.14,26h0A6,6,0,0,0,17,18.75a6,6,0,0,0-6.63,5.93h0A1.34,1.34,0,0,1,8,23.75V21.28a1.35,1.35,0,0,0-1.33-1.34,1.35,1.35,0,0,0-1,.4,1.33,1.33,0,0,0-.39.94v5.27a1.2,1.2,0,0,1-2.4,0v-2a1.23,1.23,0,0,0-.66-1.08A1.24,1.24,0,0,0,1,23.57,15.31,15.31,0,0,1,31.6,24.68Z"/><path class="cls-4" d="M15.79,11.83a.64.64,0,0,1,0,.2.63.63,0,0,1-.41.59l-1.73.61a.63.63,0,0,1-.79-.38.64.64,0,0,1,.38-.8l1.72-.6a.62.62,0,0,1,.8.38Z"/><path class="cls-4" d="M12.27,16.35a.63.63,0,0,1,.26.4.66.66,0,0,1-.1.47l-1,1.5A.63.63,0,0,1,11,19a.65.65,0,0,1-.47-.1h0a.61.61,0,0,1-.26-.4.66.66,0,0,1,.1-.47l1-1.5a.67.67,0,0,1,.4-.26.65.65,0,0,1,.47.1Z"/><path class="cls-4" d="M27,18a.62.62,0,0,1,.06.88h0a.64.64,0,0,1-.43.22.68.68,0,0,1-.45-.15l-1.38-1.2a.61.61,0,0,1-.21-.42.6.6,0,0,1,.15-.45h0a.63.63,0,0,1,.88-.07Z"/><path class="cls-5" d="M23.77,19.26a.83.83,0,0,1,.76.5.83.83,0,0,1-1.08,1.08.82.82,0,0,1,.32-1.58Z"/><path class="cls-5" d="M22.69,13.54a.87.87,0,1,1-.33,1.67.87.87,0,0,1,.33-1.67Z"/><path class="cls-4" d="M20.18,16.15v.06a.62.62,0,0,1-.56.62L17.8,17a.67.67,0,0,1-.45-.14.66.66,0,0,1-.23-.42v-.06a.62.62,0,0,1,.56-.62l1.82-.18a.62.62,0,0,1,.68.56Z"/><path class="cls-5" d="M10.29,13.41a.64.64,0,0,1,.59.4.63.63,0,0,1-.14.7.61.61,0,0,1-.7.14.64.64,0,0,1-.4-.59.65.65,0,0,1,.65-.65Z"/><path class="cls-4" d="M8.6,16.52a.66.66,0,0,1-.07.47.6.6,0,0,1-.38.28l-1.77.46a.62.62,0,0,1-.76-.44h0a.63.63,0,0,1,.45-.76l1.77-.46a.64.64,0,0,1,.47.06.69.69,0,0,1,.29.38Z"/><path d="M16.16,11.69a1,1,0,0,0-1.3-.62l-1.72.61A1,1,0,0,0,12.52,13h0a1.06,1.06,0,0,0,.52.58,1,1,0,0,0,.78,0L15.54,13a1,1,0,0,0,.62-1.29Zm-.89.56-1.72.6a.23.23,0,0,1-.29-.13h0a.23.23,0,0,1,.14-.29l1.72-.61a.23.23,0,0,1,.29.14h0a.23.23,0,0,1-.14.29Z"/><path d="M9,16.41a1,1,0,0,0-1.24-.72L6,16.15a1,1,0,0,0-.62.47,1,1,0,0,0-.11.77h0a1,1,0,0,0,1,.76,1.09,1.09,0,0,0,.26,0l1.77-.46A1,1,0,0,0,9,16.42Zm-.93.48-1.77.46A.22.22,0,0,1,6,17.19H6a.23.23,0,0,1,.16-.28l1.77-.46a.22.22,0,0,1,.27.16h0a.22.22,0,0,1-.16.27Z"/><path d="M24.42,16.57h0a1,1,0,0,0,.1,1.43l1.38,1.2a1,1,0,0,0,.67.24h.07a1,1,0,0,0,.7-.34h0a1,1,0,0,0-.1-1.44l-1.39-1.19a1,1,0,0,0-1.43.11Zm2.32,2h0a.22.22,0,0,1-.32,0L25,17.41a.23.23,0,0,1,0-.33h0a.23.23,0,0,1,.32,0l1.38,1.19a.23.23,0,0,1,0,.32Z"/><path d="M20.57,16.11a1,1,0,0,0-1.11-.91l-1.82.17a1,1,0,0,0-.91,1.11h0a1,1,0,0,0,1,.92h.1l1.82-.18a1,1,0,0,0,.91-1.11Zm-1,.33-1.81.17a.21.21,0,0,1-.25-.2h0a.23.23,0,0,1,.2-.25L19.54,16a.24.24,0,0,1,.25.21h0a.23.23,0,0,1-.21.25Z"/><path d="M12.5,16h0a1,1,0,0,0-1.41.26l-1,1.5a1,1,0,0,0,.26,1.41h0A1,1,0,0,0,11.72,19l1-1.51A1,1,0,0,0,12.5,16Zm-.4,1-1,1.51a.22.22,0,0,1-.31.06h0a.21.21,0,0,1-.05-.31l1-1.5a.22.22,0,0,1,.31-.06h0a.21.21,0,0,1,0,.31Z"/><path d="M11.33,14.06a1,1,0,1,0-2,.4,1,1,0,0,0,2-.4Zm-1.3,0a.25.25,0,1,1,.26.25.26.26,0,0,1-.26-.25Z"/><path d="M24,14.41a1.28,1.28,0,0,0-.78-1.17,1.25,1.25,0,0,0-1.37.27,1.26,1.26,0,1,0,2.15.9Zm-1.73,0a.47.47,0,1,1,.47.47.47.47,0,0,1-.47-.47Z"/><path d="M23.77,18.86A1.22,1.22,0,1,0,25,20.08a1.22,1.22,0,0,0-1.22-1.22Zm0,1.65a.43.43,0,1,1,.43-.43.43.43,0,0,1-.43.43Z"/><path d="M27.81,13.17A16,16,0,0,0,16.34,8.4,18.07,18.07,0,0,0,5,13a1,1,0,0,0,0,1.55H5a1,1,0,0,0,1.28,0,24.63,24.63,0,0,1,5.27-3.39,14.3,14.3,0,0,1,19,13.51,13.41,13.41,0,0,1-.1,1.68.35.35,0,0,1-.3-.35V23.15a2.35,2.35,0,0,0-2-2.38A2.26,2.26,0,0,0,25.7,23V32A.35.35,0,1,1,25,32V27.25A2.36,2.36,0,0,0,23.25,25,7,7,0,0,0,9.36,24.1c-.17,0-.35-.16-.35-.35V21.42A2.41,2.41,0,0,0,6.93,19a2.33,2.33,0,0,0-2.57,2.31v5.27c0,.24-.43.24-.43,0v-2A2.2,2.2,0,0,0,2.16,22.4,11.64,11.64,0,0,1,3.5,18.25a1,1,0,0,0-.26-1.19h0a1,1,0,0,0-1.47.31c-.22.43-.44.87-.52,1.08A16.31,16.31,0,0,0,16.3,41h0A15.63,15.63,0,0,0,24,39.1a16.4,16.4,0,0,0,8.59-14.41A16.17,16.17,0,0,0,27.81,13.17ZM2.3,27.73a2.19,2.19,0,0,0,4-1.18V21.28a.35.35,0,1,1,.69,0v2.47a2.32,2.32,0,0,0,1,1.91,2.38,2.38,0,0,0,1.44.41,7,7,0,0,0,13.4.87v0a.37.37,0,0,1,.14.29V32a2.33,2.33,0,0,0,4.65,0V23a.28.28,0,0,1,.28-.29.29.29,0,0,1,.28.29v3a2.32,2.32,0,0,0,.84,1.8,2.38,2.38,0,0,0,1.07.49,14.14,14.14,0,0,1-3.73,6.5h0A14.33,14.33,0,0,1,2.3,27.73Zm18.6-1.14a5,5,0,1,1-1.08-5.43A5,5,0,0,1,20.9,26.59Z"/><path class="cls-6" d="M30.67,35.19l-.46,9.28H7.8l-.47-9.28a1.45,1.45,0,0,1,1.44-1.52H29.23A1.44,1.44,0,0,1,30.67,35.19Z"/><path class="cls-7" d="M29.38,60.88a29.18,29.18,0,0,0,.09,4.18l1.28,13.32a5.05,5.05,0,0,1-5.06,5.06H12.31a5.06,5.06,0,0,1-5.06-5.06L8.53,65.06a29.18,29.18,0,0,0,.09-4.18L7.8,44.47H30.21L29.63,55.9"/><path class="cls-8" d="M22.34,5.06a3.46,3.46,0,0,0,2.46.88,2.62,2.62,0,0,0,.56-.09.21.21,0,0,0,.14-.15c0-.06,0-.11,0-.13a2.11,2.11,0,0,0,0-.25,3.47,3.47,0,0,0-.91-2.39,3.27,3.27,0,0,0-1.37-.88A3.11,3.11,0,0,0,21.33,2a.18.18,0,0,0-.13.15A3.09,3.09,0,0,0,21.56,4a3.9,3.9,0,0,0,.78,1Z"/><path class="cls-9" d="M23.74,7.78A3.44,3.44,0,0,0,25.68,6a2.5,2.5,0,0,0,.19-.52.19.19,0,0,0-.06-.2l-.11-.08c-.06-.05-.14-.09-.21-.14A3.54,3.54,0,0,0,23,4.75a3.35,3.35,0,0,0-1.43.78,3.15,3.15,0,0,0-1,1.65.19.19,0,0,0,.07.2,3.17,3.17,0,0,0,1.86.6,4,4,0,0,0,1.28-.2Z"/><path class="cls-9" d="M27.28,4A3.43,3.43,0,0,1,25.69,6a2.91,2.91,0,0,1-.51.22.17.17,0,0,1-.2,0l-.09-.09-.15-.2a3.53,3.53,0,0,1-.53-2.51,3.27,3.27,0,0,1,.67-1.48A3.16,3.16,0,0,1,26.45.8a.21.21,0,0,1,.2,0,3.13,3.13,0,0,1,.74,1.82A3.44,3.44,0,0,1,27.28,4Z"/><path class="cls-10" d="M24.57,11.6a6.07,6.07,0,0,0,2.85,1.34c.32.07.63.14.95.19A8.6,8.6,0,0,0,32.08,13a1.45,1.45,0,0,0,1-1.1,10.08,10.08,0,0,0-.63-5.32A5.08,5.08,0,0,0,31.16,4.5a4.84,4.84,0,1,0-6.59,7.1Z"/><path class="cls-11" d="M32.37,13.19a1.75,1.75,0,0,0,1-1.25,7.47,7.47,0,0,0,.22-1.81,7.63,7.63,0,0,0-.46-2.8l-.08-.18A.29.29,0,0,0,32.69,7a.31.31,0,0,0-.17.39,1.22,1.22,0,0,1,.07.17,7.1,7.1,0,0,1,.22,4.28,1.17,1.17,0,0,1-.81.88,8.26,8.26,0,0,1-3.58.13l-.93-.18a5.44,5.44,0,0,1-2.72-1.27A4.55,4.55,0,0,1,31,4.71a4,4,0,0,1,.55.62.3.3,0,0,0,.41.07A.3.3,0,0,0,32,5a4.63,4.63,0,0,0-.62-.7A5.11,5.11,0,0,0,27.7,2.91V2.85c0-.07,0-.14,0-.2a3.55,3.55,0,0,0-.81-2,.5.5,0,0,0-.51-.15,3.47,3.47,0,0,0-1.73,1.23,4.89,4.89,0,0,0-.33.51,4.37,4.37,0,0,0-.94-.48,3.43,3.43,0,0,0-2.12-.1.5.5,0,0,0-.35.4,3.43,3.43,0,0,0,.4,2.11,4.58,4.58,0,0,0,.51.76,4,4,0,0,0-.47.37,3.32,3.32,0,0,0-1.1,1.81.48.48,0,0,0,.18.49,3.46,3.46,0,0,0,2,.67h.27a5.14,5.14,0,0,0,1.2,3.08c.19.23.43.46.43.46a6.43,6.43,0,0,0,3,1.42c.33.08.66.14,1,.19a9.27,9.27,0,0,0,3.38,0A4.58,4.58,0,0,0,32.37,13.19Zm-7.9-9a3.72,3.72,0,0,1,0-.74,3,3,0,0,1,.61-1.34,2.88,2.88,0,0,1,1.35-1,2.86,2.86,0,0,1,.62,1.6c0,.08,0,.17,0,.26A5.23,5.23,0,0,0,24.47,4.18Zm-2.12.46a3.67,3.67,0,0,1-.53-.74,2.87,2.87,0,0,1-.34-1.68,2.86,2.86,0,0,1,1.68.11,3.47,3.47,0,0,1,.9.47,2.42,2.42,0,0,0-.14.56,4.22,4.22,0,0,0,0,1,4.3,4.3,0,0,0-1,.1A2.85,2.85,0,0,0,22.35,4.64Zm.39,3h-.27a2.89,2.89,0,0,1-1.64-.5,2.89,2.89,0,0,1,.9-1.43A3,3,0,0,1,23,5,3.71,3.71,0,0,1,23.75,5,5.1,5.1,0,0,0,22.74,7.67Z"/></g></g></svg>